<?xml version="1.0" encoding="UTF-8" standalone="no"?>
<!DOCTYPE svg PUBLIC "-//W3C//DTD SVG 1.1//EN"
 "http://www.w3.org/Graphics/SVG/1.1/DTD/svg11.dtd">
<!-- Generated by graphviz version 9.0.0 (0)
 -->
<!-- Pages: 1 -->
<svg width="299pt" height="568pt"
 viewBox="0.00 0.00 298.72 567.69" xmlns="http://www.w3.org/2000/svg" xmlns:xlink="http://www.w3.org/1999/xlink">
<g id="graph0" class="graph" transform="scale(1 1) rotate(0) translate(4 563.69)">
<polygon fill="white" stroke="none" points="-4,4 -4,-563.69 294.72,-563.69 294.72,4 -4,4"/>
<!-- n0 -->
<g id="node1" class="node">
<title>n0</title>
<ellipse fill="none" stroke="black" cx="58.88" cy="-541.69" rx="18" ry="18"/>
<text text-anchor="middle" x="58.88" y="-536.64" font-family="Times,serif" font-size="14.00">sum</text>
</g>
<!-- n1 -->
<g id="node2" class="node">
<title>n1</title>
<ellipse fill="none" stroke="black" cx="58.88" cy="-469.69" rx="18" ry="18"/>
<text text-anchor="middle" x="58.88" y="-464.64" font-family="Times,serif" font-size="14.00">sqr</text>
</g>
<!-- n1&#45;&gt;n0 -->
<g id="edge1" class="edge">
<title>n1&#45;&gt;n0</title>
<path fill="none" stroke="black" d="M58.88,-488C58.88,-495.29 58.88,-503.97 58.88,-512.16"/>
<polygon fill="black" stroke="black" points="55.38,-512.08 58.88,-522.08 62.38,-512.08 55.38,-512.08"/>
</g>
<!-- n2 -->
<g id="node3" class="node">
<title>n2</title>
<ellipse fill="none" stroke="black" cx="58.88" cy="-397.69" rx="18" ry="18"/>
<text text-anchor="middle" x="58.88" y="-392.64" font-family="Times,serif" font-size="14.00">&#45;</text>
</g>
<!-- n2&#45;&gt;n1 -->
<g id="edge2" class="edge">
<title>n2&#45;&gt;n1</title>
<path fill="none" stroke="black" d="M58.88,-416C58.88,-423.29 58.88,-431.97 58.88,-440.16"/>
<polygon fill="black" stroke="black" points="55.38,-440.08 58.88,-450.08 62.38,-440.08 55.38,-440.08"/>
</g>
<!-- n3 -->
<g id="node4" class="node">
<title>n3</title>
<ellipse fill="none" stroke="black" cx="58.88" cy="-325.69" rx="18" ry="18"/>
<text text-anchor="middle" x="58.88" y="-320.64" font-family="Times,serif" font-size="14.00">&#45;</text>
</g>
<!-- n3&#45;&gt;n2 -->
<g id="edge3" class="edge">
<title>n3&#45;&gt;n2</title>
<path fill="none" stroke="black" d="M58.88,-344C58.88,-351.29 58.88,-359.97 58.88,-368.16"/>
<polygon fill="black" stroke="black" points="55.38,-368.08 58.88,-378.08 62.38,-368.08 55.38,-368.08"/>
</g>
<!-- n4 -->
<g id="node5" class="node">
<title>n4</title>
<ellipse fill="none" stroke="black" cx="102.88" cy="-253.69" rx="18" ry="18"/>
<text text-anchor="middle" x="102.88" y="-248.64" font-family="Times,serif" font-size="14.00">+</text>
</g>
<!-- n4&#45;&gt;n3 -->
<g id="edge4" class="edge">
<title>n4&#45;&gt;n3</title>
<path fill="none" stroke="black" d="M93.54,-269.54C87.94,-278.45 80.68,-290 74.25,-300.23"/>
<polygon fill="black" stroke="black" points="71.36,-298.26 69,-308.59 77.28,-301.99 71.36,-298.26"/>
</g>
<!-- n5 -->
<g id="node6" class="node">
<title>n5</title>
<ellipse fill="none" stroke="black" cx="31.88" cy="-253.69" rx="18" ry="18"/>
<text text-anchor="middle" x="31.88" y="-248.64" font-family="Times,serif" font-size="14.00">*</text>
</g>
<!-- n5&#45;&gt;n3 -->
<g id="edge5" class="edge">
<title>n5&#45;&gt;n3</title>
<path fill="none" stroke="black" d="M38.14,-270.93C41.24,-278.97 45.06,-288.88 48.58,-298"/>
<polygon fill="black" stroke="black" points="45.24,-299.06 52.1,-307.13 51.77,-296.55 45.24,-299.06"/>
</g>
<!-- n6 -->
<g id="node7" class="node">
<title>n6</title>
<ellipse fill="none" stroke="black" cx="102.88" cy="-181.69" rx="18" ry="18"/>
<text text-anchor="middle" x="102.88" y="-176.64" font-family="Times,serif" font-size="14.00">+</text>
</g>
<!-- n6&#45;&gt;n4 -->
<g id="edge6" class="edge">
<title>n6&#45;&gt;n4</title>
<path fill="none" stroke="black" d="M102.88,-200C102.88,-207.29 102.88,-215.97 102.88,-224.16"/>
<polygon fill="black" stroke="black" points="99.38,-224.08 102.88,-234.08 106.38,-224.08 99.38,-224.08"/>
</g>
<!-- n7 -->
<g id="node8" class="node">
<title>n7</title>
<ellipse fill="none" stroke="black" cx="191.88" cy="-181.69" rx="18" ry="18"/>
<text text-anchor="middle" x="191.88" y="-176.64" font-family="Times,serif" font-size="14.00">+</text>
</g>
<!-- n7&#45;&gt;n4 -->
<g id="edge7" class="edge">
<title>n7&#45;&gt;n4</title>
<path fill="none" stroke="black" d="M177.97,-193.63C163.99,-204.62 142.21,-221.76 125.7,-234.74"/>
<polygon fill="black" stroke="black" points="123.57,-231.96 117.87,-240.9 127.9,-237.47 123.57,-231.96"/>
</g>
<!-- n8 -->
<g id="node9" class="node">
<title>n8</title>
<ellipse fill="none" stroke="black" cx="49.88" cy="-99.85" rx="25.32" ry="25.32"/>
<text text-anchor="middle" x="49.88" y="-94.8" font-family="Times,serif" font-size="14.00">roll(1,0)</text>
</g>
<!-- n8&#45;&gt;n6 -->
<g id="edge8" class="edge">
<title>n8&#45;&gt;n6</title>
<path fill="none" stroke="black" d="M63.52,-121.41C70.69,-132.2 79.51,-145.49 86.98,-156.74"/>
<polygon fill="black" stroke="black" points="83.84,-158.34 92.28,-164.74 89.67,-154.47 83.84,-158.34"/>
</g>
<!-- n9 -->
<g id="node10" class="node">
<title>n9</title>
<ellipse fill="none" stroke="black" cx="120.88" cy="-99.85" rx="27.85" ry="27.85"/>
<text text-anchor="middle" x="120.88" y="-94.8" font-family="Times,serif" font-size="14.00">roll(&#45;1,0)</text>
</g>
<!-- n9&#45;&gt;n6 -->
<g id="edge9" class="edge">
<title>n9&#45;&gt;n6</title>
<path fill="none" stroke="black" d="M114.88,-127.44C113.05,-135.58 111.02,-144.55 109.17,-152.78"/>
<polygon fill="black" stroke="black" points="105.81,-151.74 107.03,-162.27 112.64,-153.28 105.81,-151.74"/>
</g>
<!-- n10 -->
<g id="node11" class="node">
<title>n10</title>
<ellipse fill="none" stroke="black" cx="120.88" cy="-18" rx="18" ry="18"/>
<text text-anchor="middle" x="120.88" y="-12.95" font-family="Times,serif" font-size="14.00">u</text>
</g>
<!-- n10&#45;&gt;n5 -->
<g id="edge16" class="edge">
<title>n10&#45;&gt;n5</title>
<path fill="none" stroke="black" d="M102.88,-22.14C78.25,-27.51 34.93,-41.04 15.88,-72 -13.59,-119.88 5.82,-188.86 20.27,-226.22"/>
<polygon fill="black" stroke="black" points="16.97,-227.39 23.97,-235.34 23.45,-224.76 16.97,-227.39"/>
</g>
<!-- n10&#45;&gt;n8 -->
<g id="edge10" class="edge">
<title>n10&#45;&gt;n8</title>
<path fill="none" stroke="black" d="M109.15,-32.19C99.59,-42.94 85.76,-58.49 73.87,-71.86"/>
<polygon fill="black" stroke="black" points="71.43,-69.34 67.4,-79.13 76.66,-73.99 71.43,-69.34"/>
</g>
<!-- n10&#45;&gt;n9 -->
<g id="edge11" class="edge">
<title>n10&#45;&gt;n9</title>
<path fill="none" stroke="black" d="M120.88,-36.33C120.88,-43.39 120.88,-51.86 120.88,-60.25"/>
<polygon fill="black" stroke="black" points="117.38,-59.99 120.88,-69.99 124.38,-59.99 117.38,-59.99"/>
</g>
<!-- n11 -->
<g id="node12" class="node">
<title>n11</title>
<ellipse fill="none" stroke="black" cx="191.88" cy="-99.85" rx="25.32" ry="25.32"/>
<text text-anchor="middle" x="191.88" y="-94.8" font-family="Times,serif" font-size="14.00">roll(0,1)</text>
</g>
<!-- n10&#45;&gt;n11 -->
<g id="edge14" class="edge">
<title>n10&#45;&gt;n11</title>
<path fill="none" stroke="black" d="M132.6,-32.19C142.16,-42.94 155.99,-58.49 167.88,-71.86"/>
<polygon fill="black" stroke="black" points="165.09,-73.99 174.35,-79.13 170.32,-69.34 165.09,-73.99"/>
</g>
<!-- n12 -->
<g id="node13" class="node">
<title>n12</title>
<ellipse fill="none" stroke="black" cx="262.88" cy="-99.85" rx="27.85" ry="27.85"/>
<text text-anchor="middle" x="262.88" y="-94.8" font-family="Times,serif" font-size="14.00">roll(0,&#45;1)</text>
</g>
<!-- n10&#45;&gt;n12 -->
<g id="edge15" class="edge">
<title>n10&#45;&gt;n12</title>
<path fill="none" stroke="black" d="M137.32,-26.3C158.37,-35.87 195.71,-53.61 225.88,-72 227.76,-73.15 229.66,-74.36 231.57,-75.61"/>
<polygon fill="black" stroke="black" points="229.49,-78.43 239.72,-81.21 233.46,-72.66 229.49,-78.43"/>
</g>
<!-- n11&#45;&gt;n7 -->
<g id="edge12" class="edge">
<title>n11&#45;&gt;n7</title>
<path fill="none" stroke="black" d="M191.88,-125.24C191.88,-133.69 191.88,-143.24 191.88,-152"/>
<polygon fill="black" stroke="black" points="188.38,-151.78 191.88,-161.78 195.38,-151.78 188.38,-151.78"/>
</g>
<!-- n12&#45;&gt;n7 -->
<g id="edge13" class="edge">
<title>n12&#45;&gt;n7</title>
<path fill="none" stroke="black" d="M244.59,-121.41C234.24,-133.05 221.32,-147.58 210.86,-159.34"/>
<polygon fill="black" stroke="black" points="208.46,-156.77 204.43,-166.57 213.69,-161.42 208.46,-156.77"/>
</g>
</g>
</svg>
