<?xml version="1.0" encoding="UTF-8" standalone="no"?>
<!DOCTYPE svg PUBLIC "-//W3C//DTD SVG 1.1//EN"
 "http://www.w3.org/Graphics/SVG/1.1/DTD/svg11.dtd">
<!-- Generated by graphviz version 9.0.0 (0)
 -->
<!-- Pages: 1 -->
<svg width="302pt" height="1072pt"
 viewBox="0.00 0.00 302.37 1071.69" xmlns="http://www.w3.org/2000/svg" xmlns:xlink="http://www.w3.org/1999/xlink">
<g id="graph0" class="graph" transform="scale(1 1) rotate(0) translate(4 1067.69)">
<polygon fill="white" stroke="none" points="-4,4 -4,-1067.69 298.37,-1067.69 298.37,4 -4,4"/>
<!-- n0 -->
<g id="node1" class="node">
<title>n0</title>
<ellipse fill="none" stroke="black" cx="248.32" cy="-90" rx="18" ry="18"/>
<text text-anchor="middle" x="248.32" y="-84.95" font-family="Times,serif" font-size="14.00">I</text>
</g>
<!-- n2 -->
<g id="node3" class="node">
<title>n2</title>
<ellipse fill="none" stroke="black" cx="221.32" cy="-162" rx="18" ry="18"/>
<text text-anchor="middle" x="221.32" y="-156.95" font-family="Times,serif" font-size="14.00">+</text>
</g>
<!-- n0&#45;&gt;n2 -->
<g id="edge2" class="edge">
<title>n0&#45;&gt;n2</title>
<path fill="none" stroke="black" d="M242.05,-107.24C238.95,-115.28 235.13,-125.19 231.61,-134.31"/>
<polygon fill="black" stroke="black" points="228.42,-132.85 228.09,-143.44 234.95,-135.37 228.42,-132.85"/>
</g>
<!-- n1 -->
<g id="node2" class="node">
<title>n1</title>
<ellipse fill="none" stroke="black" cx="248.32" cy="-18" rx="18" ry="18"/>
<text text-anchor="middle" x="248.32" y="-12.95" font-family="Times,serif" font-size="14.00">u4</text>
</g>
<!-- n1&#45;&gt;n0 -->
<g id="edge1" class="edge">
<title>n1&#45;&gt;n0</title>
<path fill="none" stroke="black" d="M248.32,-36.3C248.32,-43.59 248.32,-52.27 248.32,-60.46"/>
<polygon fill="black" stroke="black" points="244.82,-60.38 248.32,-70.38 251.82,-60.38 244.82,-60.38"/>
</g>
<!-- n4 -->
<g id="node5" class="node">
<title>n4</title>
<ellipse fill="none" stroke="black" cx="221.32" cy="-234" rx="18" ry="18"/>
<text text-anchor="middle" x="221.32" y="-228.95" font-family="Times,serif" font-size="14.00">I</text>
</g>
<!-- n2&#45;&gt;n4 -->
<g id="edge4" class="edge">
<title>n2&#45;&gt;n4</title>
<path fill="none" stroke="black" d="M221.32,-180.3C221.32,-187.59 221.32,-196.27 221.32,-204.46"/>
<polygon fill="black" stroke="black" points="217.82,-204.38 221.32,-214.38 224.82,-204.38 217.82,-204.38"/>
</g>
<!-- n3 -->
<g id="node4" class="node">
<title>n3</title>
<ellipse fill="none" stroke="black" cx="194.32" cy="-90" rx="18" ry="18"/>
<text text-anchor="middle" x="194.32" y="-84.95" font-family="Times,serif" font-size="14.00">u3</text>
</g>
<!-- n3&#45;&gt;n2 -->
<g id="edge3" class="edge">
<title>n3&#45;&gt;n2</title>
<path fill="none" stroke="black" d="M200.58,-107.24C203.68,-115.28 207.5,-125.19 211.02,-134.31"/>
<polygon fill="black" stroke="black" points="207.68,-135.37 214.54,-143.44 214.21,-132.85 207.68,-135.37"/>
</g>
<!-- n5 -->
<g id="node6" class="node">
<title>n5</title>
<ellipse fill="none" stroke="black" cx="194.32" cy="-306" rx="18" ry="18"/>
<text text-anchor="middle" x="194.32" y="-300.95" font-family="Times,serif" font-size="14.00">+</text>
</g>
<!-- n4&#45;&gt;n5 -->
<g id="edge5" class="edge">
<title>n4&#45;&gt;n5</title>
<path fill="none" stroke="black" d="M215.05,-251.24C211.95,-259.28 208.13,-269.19 204.61,-278.31"/>
<polygon fill="black" stroke="black" points="201.42,-276.85 201.09,-287.44 207.95,-279.37 201.42,-276.85"/>
</g>
<!-- n7 -->
<g id="node8" class="node">
<title>n7</title>
<ellipse fill="none" stroke="black" cx="194.32" cy="-378" rx="18" ry="18"/>
<text text-anchor="middle" x="194.32" y="-372.95" font-family="Times,serif" font-size="14.00">I</text>
</g>
<!-- n5&#45;&gt;n7 -->
<g id="edge7" class="edge">
<title>n5&#45;&gt;n7</title>
<path fill="none" stroke="black" d="M194.32,-324.3C194.32,-331.59 194.32,-340.27 194.32,-348.46"/>
<polygon fill="black" stroke="black" points="190.82,-348.38 194.32,-358.38 197.82,-348.38 190.82,-348.38"/>
</g>
<!-- n6 -->
<g id="node7" class="node">
<title>n6</title>
<ellipse fill="none" stroke="black" cx="167.32" cy="-234" rx="18" ry="18"/>
<text text-anchor="middle" x="167.32" y="-228.95" font-family="Times,serif" font-size="14.00">u2</text>
</g>
<!-- n6&#45;&gt;n5 -->
<g id="edge6" class="edge">
<title>n6&#45;&gt;n5</title>
<path fill="none" stroke="black" d="M173.58,-251.24C176.68,-259.28 180.5,-269.19 184.02,-278.31"/>
<polygon fill="black" stroke="black" points="180.68,-279.37 187.54,-287.44 187.21,-276.85 180.68,-279.37"/>
</g>
<!-- n8 -->
<g id="node9" class="node">
<title>n8</title>
<ellipse fill="none" stroke="black" cx="167.32" cy="-450" rx="18" ry="18"/>
<text text-anchor="middle" x="167.32" y="-444.95" font-family="Times,serif" font-size="14.00">+</text>
</g>
<!-- n7&#45;&gt;n8 -->
<g id="edge8" class="edge">
<title>n7&#45;&gt;n8</title>
<path fill="none" stroke="black" d="M188.05,-395.24C184.95,-403.28 181.13,-413.19 177.61,-422.31"/>
<polygon fill="black" stroke="black" points="174.42,-420.85 174.09,-431.44 180.95,-423.37 174.42,-420.85"/>
</g>
<!-- n10 -->
<g id="node11" class="node">
<title>n10</title>
<ellipse fill="none" stroke="black" cx="25.32" cy="-531.85" rx="25.32" ry="25.32"/>
<text text-anchor="middle" x="25.32" y="-526.8" font-family="Times,serif" font-size="14.00">roll(1,0)</text>
</g>
<!-- n8&#45;&gt;n10 -->
<g id="edge10" class="edge">
<title>n8&#45;&gt;n10</title>
<path fill="none" stroke="black" d="M150.64,-457.87C128.91,-467.1 90.06,-484.63 59.32,-504 57.25,-505.3 55.16,-506.71 53.08,-508.17"/>
<polygon fill="black" stroke="black" points="51.35,-505.09 45.43,-513.87 55.54,-510.7 51.35,-505.09"/>
</g>
<!-- n11 -->
<g id="node12" class="node">
<title>n11</title>
<ellipse fill="none" stroke="black" cx="96.32" cy="-531.85" rx="27.85" ry="27.85"/>
<text text-anchor="middle" x="96.32" y="-526.8" font-family="Times,serif" font-size="14.00">roll(&#45;1,0)</text>
</g>
<!-- n8&#45;&gt;n11 -->
<g id="edge11" class="edge">
<title>n8&#45;&gt;n11</title>
<path fill="none" stroke="black" d="M155.59,-464.19C146.5,-474.41 133.57,-488.95 122.1,-501.85"/>
<polygon fill="black" stroke="black" points="119.49,-499.52 115.46,-509.32 124.72,-504.17 119.49,-499.52"/>
</g>
<!-- n13 -->
<g id="node14" class="node">
<title>n13</title>
<ellipse fill="none" stroke="black" cx="167.32" cy="-531.85" rx="25.32" ry="25.32"/>
<text text-anchor="middle" x="167.32" y="-526.8" font-family="Times,serif" font-size="14.00">roll(0,1)</text>
</g>
<!-- n8&#45;&gt;n13 -->
<g id="edge14" class="edge">
<title>n8&#45;&gt;n13</title>
<path fill="none" stroke="black" d="M167.32,-468.33C167.32,-476.13 167.32,-485.65 167.32,-494.89"/>
<polygon fill="black" stroke="black" points="163.82,-494.77 167.32,-504.77 170.82,-494.77 163.82,-494.77"/>
</g>
<!-- n14 -->
<g id="node15" class="node">
<title>n14</title>
<ellipse fill="none" stroke="black" cx="238.32" cy="-531.85" rx="27.85" ry="27.85"/>
<text text-anchor="middle" x="238.32" y="-526.8" font-family="Times,serif" font-size="14.00">roll(0,&#45;1)</text>
</g>
<!-- n8&#45;&gt;n14 -->
<g id="edge15" class="edge">
<title>n8&#45;&gt;n14</title>
<path fill="none" stroke="black" d="M179.04,-464.19C188.13,-474.41 201.06,-488.95 212.53,-501.85"/>
<polygon fill="black" stroke="black" points="209.91,-504.17 219.17,-509.32 215.14,-499.52 209.91,-504.17"/>
</g>
<!-- n17 -->
<g id="node18" class="node">
<title>n17</title>
<ellipse fill="none" stroke="black" cx="275.32" cy="-685.69" rx="18" ry="18"/>
<text text-anchor="middle" x="275.32" y="-680.64" font-family="Times,serif" font-size="14.00">*</text>
</g>
<!-- n8&#45;&gt;n17 -->
<g id="edge20" class="edge">
<title>n8&#45;&gt;n17</title>
<path fill="none" stroke="black" d="M185.38,-453.89C210.62,-459 255.54,-472.27 275.32,-504 304.79,-551.29 293.36,-619.95 283.6,-657.55"/>
<polygon fill="black" stroke="black" points="280.36,-656.14 281.08,-666.71 287.11,-658 280.36,-656.14"/>
</g>
<!-- n9 -->
<g id="node10" class="node">
<title>n9</title>
<ellipse fill="none" stroke="black" cx="140.32" cy="-378" rx="18" ry="18"/>
<text text-anchor="middle" x="140.32" y="-372.95" font-family="Times,serif" font-size="14.00">u1</text>
</g>
<!-- n9&#45;&gt;n8 -->
<g id="edge9" class="edge">
<title>n9&#45;&gt;n8</title>
<path fill="none" stroke="black" d="M146.58,-395.24C149.68,-403.28 153.5,-413.19 157.02,-422.31"/>
<polygon fill="black" stroke="black" points="153.68,-423.37 160.54,-431.44 160.21,-420.85 153.68,-423.37"/>
</g>
<!-- n12 -->
<g id="node13" class="node">
<title>n12</title>
<ellipse fill="none" stroke="black" cx="96.32" cy="-613.69" rx="18" ry="18"/>
<text text-anchor="middle" x="96.32" y="-608.64" font-family="Times,serif" font-size="14.00">+</text>
</g>
<!-- n10&#45;&gt;n12 -->
<g id="edge12" class="edge">
<title>n10&#45;&gt;n12</title>
<path fill="none" stroke="black" d="M41.78,-551.37C52.33,-563.23 66.06,-578.67 77.11,-591.09"/>
<polygon fill="black" stroke="black" points="74.33,-593.23 83.59,-598.38 79.56,-588.58 74.33,-593.23"/>
</g>
<!-- n11&#45;&gt;n12 -->
<g id="edge13" class="edge">
<title>n11&#45;&gt;n12</title>
<path fill="none" stroke="black" d="M96.32,-559.88C96.32,-567.69 96.32,-576.24 96.32,-584.14"/>
<polygon fill="black" stroke="black" points="92.82,-583.94 96.32,-593.94 99.82,-583.94 92.82,-583.94"/>
</g>
<!-- n16 -->
<g id="node17" class="node">
<title>n16</title>
<ellipse fill="none" stroke="black" cx="185.32" cy="-685.69" rx="18" ry="18"/>
<text text-anchor="middle" x="185.32" y="-680.64" font-family="Times,serif" font-size="14.00">+</text>
</g>
<!-- n12&#45;&gt;n16 -->
<g id="edge18" class="edge">
<title>n12&#45;&gt;n16</title>
<path fill="none" stroke="black" d="M110.22,-625.63C124.2,-636.62 145.98,-653.76 162.49,-666.74"/>
<polygon fill="black" stroke="black" points="160.29,-669.47 170.32,-672.9 164.62,-663.96 160.29,-669.47"/>
</g>
<!-- n15 -->
<g id="node16" class="node">
<title>n15</title>
<ellipse fill="none" stroke="black" cx="185.32" cy="-613.69" rx="18" ry="18"/>
<text text-anchor="middle" x="185.32" y="-608.64" font-family="Times,serif" font-size="14.00">+</text>
</g>
<!-- n13&#45;&gt;n15 -->
<g id="edge16" class="edge">
<title>n13&#45;&gt;n15</title>
<path fill="none" stroke="black" d="M172.72,-556.8C174.67,-565.49 176.91,-575.39 178.94,-584.41"/>
<polygon fill="black" stroke="black" points="175.52,-585.14 181.13,-594.13 182.34,-583.6 175.52,-585.14"/>
</g>
<!-- n14&#45;&gt;n15 -->
<g id="edge17" class="edge">
<title>n14&#45;&gt;n15</title>
<path fill="none" stroke="black" d="M223.27,-555.51C216.4,-565.86 208.27,-578.11 201.3,-588.62"/>
<polygon fill="black" stroke="black" points="198.5,-586.51 195.88,-596.78 204.33,-590.38 198.5,-586.51"/>
</g>
<!-- n15&#45;&gt;n16 -->
<g id="edge19" class="edge">
<title>n15&#45;&gt;n16</title>
<path fill="none" stroke="black" d="M185.32,-632C185.32,-639.29 185.32,-647.97 185.32,-656.16"/>
<polygon fill="black" stroke="black" points="181.82,-656.08 185.32,-666.08 188.82,-656.08 181.82,-656.08"/>
</g>
<!-- n18 -->
<g id="node19" class="node">
<title>n18</title>
<ellipse fill="none" stroke="black" cx="212.32" cy="-757.69" rx="18" ry="18"/>
<text text-anchor="middle" x="212.32" y="-752.64" font-family="Times,serif" font-size="14.00">&#45;</text>
</g>
<!-- n16&#45;&gt;n18 -->
<g id="edge21" class="edge">
<title>n16&#45;&gt;n18</title>
<path fill="none" stroke="black" d="M191.58,-702.93C194.68,-710.97 198.5,-720.88 202.02,-730"/>
<polygon fill="black" stroke="black" points="198.68,-731.06 205.54,-739.13 205.21,-728.55 198.68,-731.06"/>
</g>
<!-- n17&#45;&gt;n18 -->
<g id="edge22" class="edge">
<title>n17&#45;&gt;n18</title>
<path fill="none" stroke="black" d="M263.47,-699.86C254.49,-709.83 241.97,-723.74 231.56,-735.31"/>
<polygon fill="black" stroke="black" points="229.21,-732.69 225.12,-742.46 234.42,-737.37 229.21,-732.69"/>
</g>
<!-- n19 -->
<g id="node20" class="node">
<title>n19</title>
<ellipse fill="none" stroke="black" cx="212.32" cy="-829.69" rx="18" ry="18"/>
<text text-anchor="middle" x="212.32" y="-824.64" font-family="Times,serif" font-size="14.00">/</text>
</g>
<!-- n18&#45;&gt;n19 -->
<g id="edge23" class="edge">
<title>n18&#45;&gt;n19</title>
<path fill="none" stroke="black" d="M212.32,-776C212.32,-783.29 212.32,-791.97 212.32,-800.16"/>
<polygon fill="black" stroke="black" points="208.82,-800.08 212.32,-810.08 215.82,-800.08 208.82,-800.08"/>
</g>
<!-- n20 -->
<g id="node21" class="node">
<title>n20</title>
<ellipse fill="none" stroke="black" cx="212.32" cy="-901.69" rx="18" ry="18"/>
<text text-anchor="middle" x="212.32" y="-896.64" font-family="Times,serif" font-size="14.00">&#45;</text>
</g>
<!-- n19&#45;&gt;n20 -->
<g id="edge24" class="edge">
<title>n19&#45;&gt;n20</title>
<path fill="none" stroke="black" d="M212.32,-848C212.32,-855.29 212.32,-863.97 212.32,-872.16"/>
<polygon fill="black" stroke="black" points="208.82,-872.08 212.32,-882.08 215.82,-872.08 208.82,-872.08"/>
</g>
<!-- n21 -->
<g id="node22" class="node">
<title>n21</title>
<ellipse fill="none" stroke="black" cx="212.32" cy="-973.69" rx="18" ry="18"/>
<text text-anchor="middle" x="212.32" y="-968.64" font-family="Times,serif" font-size="14.00">sqr</text>
</g>
<!-- n20&#45;&gt;n21 -->
<g id="edge25" class="edge">
<title>n20&#45;&gt;n21</title>
<path fill="none" stroke="black" d="M212.32,-920C212.32,-927.29 212.32,-935.97 212.32,-944.16"/>
<polygon fill="black" stroke="black" points="208.82,-944.08 212.32,-954.08 215.82,-944.08 208.82,-944.08"/>
</g>
<!-- n22 -->
<g id="node23" class="node">
<title>n22</title>
<ellipse fill="none" stroke="black" cx="212.32" cy="-1045.69" rx="18" ry="18"/>
<text text-anchor="middle" x="212.32" y="-1040.64" font-family="Times,serif" font-size="14.00">mean</text>
</g>
<!-- n21&#45;&gt;n22 -->
<g id="edge26" class="edge">
<title>n21&#45;&gt;n22</title>
<path fill="none" stroke="black" d="M212.32,-992C212.32,-999.29 212.32,-1007.97 212.32,-1016.16"/>
<polygon fill="black" stroke="black" points="208.82,-1016.08 212.32,-1026.08 215.82,-1016.08 208.82,-1016.08"/>
</g>
</g>
</svg>
