<?xml version="1.0" encoding="UTF-8" standalone="no"?>
<!DOCTYPE svg PUBLIC "-//W3C//DTD SVG 1.1//EN"
 "http://www.w3.org/Graphics/SVG/1.1/DTD/svg11.dtd">
<!-- Generated by graphviz version 9.0.0 (0)
 -->
<!-- Pages: 1 -->
<svg width="206pt" height="260pt"
 viewBox="0.00 0.00 206.00 260.00" xmlns="http://www.w3.org/2000/svg" xmlns:xlink="http://www.w3.org/1999/xlink">
<g id="graph0" class="graph" transform="scale(1 1) rotate(0) translate(4 256)">
<polygon fill="white" stroke="none" points="-4,4 -4,-256 202,-256 202,4 -4,4"/>
<!-- n0 -->
<g id="node1" class="node">
<title>n0</title>
<ellipse fill="none" stroke="black" cx="99" cy="-18" rx="18" ry="18"/>
<text text-anchor="middle" x="99" y="-12.95" font-family="Times,serif" font-size="14.00">+</text>
</g>
<!-- n1 -->
<g id="node2" class="node">
<title>n1</title>
<ellipse fill="none" stroke="black" cx="72" cy="-90" rx="18" ry="18"/>
<text text-anchor="middle" x="72" y="-84.95" font-family="Times,serif" font-size="14.00">*</text>
</g>
<!-- n1&#45;&gt;n0 -->
<g id="edge9" class="edge">
<title>n1&#45;&gt;n0</title>
<path fill="none" stroke="black" d="M78.26,-72.76C81.36,-64.72 85.19,-54.81 88.7,-45.69"/>
<polygon fill="black" stroke="black" points="91.89,-47.15 92.23,-36.56 85.36,-44.63 91.89,-47.15"/>
</g>
<!-- n2 -->
<g id="node3" class="node">
<title>n2</title>
<ellipse fill="none" stroke="black" cx="18" cy="-162" rx="18" ry="18"/>
<text text-anchor="middle" x="18" y="-156.95" font-family="Times,serif" font-size="14.00">sin</text>
</g>
<!-- n2&#45;&gt;n1 -->
<g id="edge3" class="edge">
<title>n2&#45;&gt;n1</title>
<path fill="none" stroke="black" d="M28.67,-147.17C35.99,-137.68 45.88,-124.86 54.36,-113.86"/>
<polygon fill="black" stroke="black" points="57.09,-116.06 60.43,-106 51.55,-111.78 57.09,-116.06"/>
</g>
<!-- n3 -->
<g id="node4" class="node">
<title>n3</title>
<ellipse fill="none" stroke="black" cx="58" cy="-234" rx="18" ry="18"/>
<text text-anchor="middle" x="58" y="-228.95" font-family="Times,serif" font-size="14.00">x</text>
</g>
<!-- n3&#45;&gt;n2 -->
<g id="edge1" class="edge">
<title>n3&#45;&gt;n2</title>
<path fill="none" stroke="black" d="M49.32,-217.81C44.34,-209.1 37.97,-197.94 32.27,-187.97"/>
<polygon fill="black" stroke="black" points="35.41,-186.42 27.41,-179.47 29.34,-189.89 35.41,-186.42"/>
</g>
<!-- n7 -->
<g id="node8" class="node">
<title>n7</title>
<ellipse fill="none" stroke="black" cx="72" cy="-162" rx="18" ry="18"/>
<text text-anchor="middle" x="72" y="-156.95" font-family="Times,serif" font-size="14.00">cos</text>
</g>
<!-- n3&#45;&gt;n7 -->
<g id="edge5" class="edge">
<title>n3&#45;&gt;n7</title>
<path fill="none" stroke="black" d="M61.39,-216.05C62.9,-208.49 64.73,-199.37 66.43,-190.85"/>
<polygon fill="black" stroke="black" points="69.82,-191.77 68.35,-181.27 62.95,-190.39 69.82,-191.77"/>
</g>
<!-- n4 -->
<g id="node5" class="node">
<title>n4</title>
<ellipse fill="none" stroke="black" cx="126" cy="-162" rx="18" ry="18"/>
<text text-anchor="middle" x="126" y="-156.95" font-family="Times,serif" font-size="14.00">cos</text>
</g>
<!-- n4&#45;&gt;n1 -->
<g id="edge4" class="edge">
<title>n4&#45;&gt;n1</title>
<path fill="none" stroke="black" d="M115.33,-147.17C108.01,-137.68 98.12,-124.86 89.64,-113.86"/>
<polygon fill="black" stroke="black" points="92.45,-111.78 83.57,-106 86.91,-116.06 92.45,-111.78"/>
</g>
<!-- n5 -->
<g id="node6" class="node">
<title>n5</title>
<ellipse fill="none" stroke="black" cx="139" cy="-234" rx="18" ry="18"/>
<text text-anchor="middle" x="139" y="-228.95" font-family="Times,serif" font-size="14.00">y</text>
</g>
<!-- n5&#45;&gt;n4 -->
<g id="edge2" class="edge">
<title>n5&#45;&gt;n4</title>
<path fill="none" stroke="black" d="M135.85,-216.05C134.45,-208.49 132.75,-199.37 131.17,-190.85"/>
<polygon fill="black" stroke="black" points="134.66,-190.47 129.39,-181.28 127.78,-191.75 134.66,-190.47"/>
</g>
<!-- n8 -->
<g id="node9" class="node">
<title>n8</title>
<ellipse fill="none" stroke="black" cx="180" cy="-162" rx="18" ry="18"/>
<text text-anchor="middle" x="180" y="-156.95" font-family="Times,serif" font-size="14.00">sin</text>
</g>
<!-- n5&#45;&gt;n8 -->
<g id="edge6" class="edge">
<title>n5&#45;&gt;n8</title>
<path fill="none" stroke="black" d="M147.9,-217.81C153,-209.1 159.54,-197.94 165.38,-187.97"/>
<polygon fill="black" stroke="black" points="168.32,-189.86 170.36,-179.47 162.28,-186.33 168.32,-189.86"/>
</g>
<!-- n6 -->
<g id="node7" class="node">
<title>n6</title>
<ellipse fill="none" stroke="black" cx="126" cy="-90" rx="18" ry="18"/>
<text text-anchor="middle" x="126" y="-84.95" font-family="Times,serif" font-size="14.00">*</text>
</g>
<!-- n6&#45;&gt;n0 -->
<g id="edge10" class="edge">
<title>n6&#45;&gt;n0</title>
<path fill="none" stroke="black" d="M119.74,-72.76C116.64,-64.72 112.81,-54.81 109.3,-45.69"/>
<polygon fill="black" stroke="black" points="112.64,-44.63 105.77,-36.56 106.11,-47.15 112.64,-44.63"/>
</g>
<!-- n7&#45;&gt;n6 -->
<g id="edge7" class="edge">
<title>n7&#45;&gt;n6</title>
<path fill="none" stroke="black" d="M82.67,-147.17C89.99,-137.68 99.88,-124.86 108.36,-113.86"/>
<polygon fill="black" stroke="black" points="111.09,-116.06 114.43,-106 105.55,-111.78 111.09,-116.06"/>
</g>
<!-- n8&#45;&gt;n6 -->
<g id="edge8" class="edge">
<title>n8&#45;&gt;n6</title>
<path fill="none" stroke="black" d="M169.33,-147.17C162.01,-137.68 152.12,-124.86 143.64,-113.86"/>
<polygon fill="black" stroke="black" points="146.45,-111.78 137.57,-106 140.91,-116.06 146.45,-111.78"/>
</g>
</g>
</svg>
