<?xml version="1.0" encoding="UTF-8" standalone="no"?>
<!DOCTYPE svg PUBLIC "-//W3C//DTD SVG 1.1//EN"
 "http://www.w3.org/Graphics/SVG/1.1/DTD/svg11.dtd">
<!-- Generated by graphviz version 9.0.0 (0)
 -->
<!-- Pages: 1 -->
<svg width="206pt" height="332pt"
 viewBox="0.00 0.00 206.00 332.00" xmlns="http://www.w3.org/2000/svg" xmlns:xlink="http://www.w3.org/1999/xlink">
<g id="graph0" class="graph" transform="scale(1 1) rotate(0) translate(4 328)">
<polygon fill="white" stroke="none" points="-4,4 -4,-328 202,-328 202,4 -4,4"/>
<!-- n0 -->
<g id="node1" class="node">
<title>n0</title>
<ellipse fill="none" stroke="black" cx="99" cy="-306" rx="18" ry="18"/>
<text text-anchor="middle" x="99" y="-300.95" font-family="Times,serif" font-size="14.00">sum</text>
</g>
<!-- n1 -->
<g id="node2" class="node">
<title>n1</title>
<ellipse fill="none" stroke="black" cx="99" cy="-234" rx="18" ry="18"/>
<text text-anchor="middle" x="99" y="-228.95" font-family="Times,serif" font-size="14.00">+</text>
</g>
<!-- n1&#45;&gt;n0 -->
<g id="edge1" class="edge">
<title>n1&#45;&gt;n0</title>
<path fill="none" stroke="black" d="M99,-252.3C99,-259.59 99,-268.27 99,-276.46"/>
<polygon fill="black" stroke="black" points="95.5,-276.38 99,-286.38 102.5,-276.38 95.5,-276.38"/>
</g>
<!-- n2 -->
<g id="node3" class="node">
<title>n2</title>
<ellipse fill="none" stroke="black" cx="72" cy="-162" rx="18" ry="18"/>
<text text-anchor="middle" x="72" y="-156.95" font-family="Times,serif" font-size="14.00">*</text>
</g>
<!-- n2&#45;&gt;n1 -->
<g id="edge2" class="edge">
<title>n2&#45;&gt;n1</title>
<path fill="none" stroke="black" d="M78.26,-179.24C81.36,-187.28 85.19,-197.19 88.7,-206.31"/>
<polygon fill="black" stroke="black" points="85.36,-207.37 92.23,-215.44 91.89,-204.85 85.36,-207.37"/>
</g>
<!-- n3 -->
<g id="node4" class="node">
<title>n3</title>
<ellipse fill="none" stroke="black" cx="126" cy="-162" rx="18" ry="18"/>
<text text-anchor="middle" x="126" y="-156.95" font-family="Times,serif" font-size="14.00">*</text>
</g>
<!-- n3&#45;&gt;n1 -->
<g id="edge3" class="edge">
<title>n3&#45;&gt;n1</title>
<path fill="none" stroke="black" d="M119.74,-179.24C116.64,-187.28 112.81,-197.19 109.3,-206.31"/>
<polygon fill="black" stroke="black" points="106.11,-204.85 105.77,-215.44 112.64,-207.37 106.11,-204.85"/>
</g>
<!-- n4 -->
<g id="node5" class="node">
<title>n4</title>
<ellipse fill="none" stroke="black" cx="18" cy="-90" rx="18" ry="18"/>
<text text-anchor="middle" x="18" y="-84.95" font-family="Times,serif" font-size="14.00">sin</text>
</g>
<!-- n4&#45;&gt;n2 -->
<g id="edge4" class="edge">
<title>n4&#45;&gt;n2</title>
<path fill="none" stroke="black" d="M28.67,-104.83C35.99,-114.32 45.88,-127.14 54.36,-138.14"/>
<polygon fill="black" stroke="black" points="51.55,-140.22 60.43,-146 57.09,-135.94 51.55,-140.22"/>
</g>
<!-- n5 -->
<g id="node6" class="node">
<title>n5</title>
<ellipse fill="none" stroke="black" cx="126" cy="-90" rx="18" ry="18"/>
<text text-anchor="middle" x="126" y="-84.95" font-family="Times,serif" font-size="14.00">cos</text>
</g>
<!-- n5&#45;&gt;n2 -->
<g id="edge5" class="edge">
<title>n5&#45;&gt;n2</title>
<path fill="none" stroke="black" d="M115.33,-104.83C108.01,-114.32 98.12,-127.14 89.64,-138.14"/>
<polygon fill="black" stroke="black" points="86.91,-135.94 83.57,-146 92.45,-140.22 86.91,-135.94"/>
</g>
<!-- n6 -->
<g id="node7" class="node">
<title>n6</title>
<ellipse fill="none" stroke="black" cx="58" cy="-18" rx="18" ry="18"/>
<text text-anchor="middle" x="58" y="-12.95" font-family="Times,serif" font-size="14.00">x</text>
</g>
<!-- n6&#45;&gt;n4 -->
<g id="edge6" class="edge">
<title>n6&#45;&gt;n4</title>
<path fill="none" stroke="black" d="M49.32,-34.19C44.34,-42.9 37.97,-54.06 32.27,-64.03"/>
<polygon fill="black" stroke="black" points="29.34,-62.11 27.41,-72.53 35.41,-65.58 29.34,-62.11"/>
</g>
<!-- n8 -->
<g id="node9" class="node">
<title>n8</title>
<ellipse fill="none" stroke="black" cx="72" cy="-90" rx="18" ry="18"/>
<text text-anchor="middle" x="72" y="-84.95" font-family="Times,serif" font-size="14.00">cos</text>
</g>
<!-- n6&#45;&gt;n8 -->
<g id="edge10" class="edge">
<title>n6&#45;&gt;n8</title>
<path fill="none" stroke="black" d="M61.39,-35.95C62.9,-43.51 64.73,-52.63 66.43,-61.15"/>
<polygon fill="black" stroke="black" points="62.95,-61.61 68.35,-70.73 69.82,-60.23 62.95,-61.61"/>
</g>
<!-- n7 -->
<g id="node8" class="node">
<title>n7</title>
<ellipse fill="none" stroke="black" cx="139" cy="-18" rx="18" ry="18"/>
<text text-anchor="middle" x="139" y="-12.95" font-family="Times,serif" font-size="14.00">y</text>
</g>
<!-- n7&#45;&gt;n5 -->
<g id="edge7" class="edge">
<title>n7&#45;&gt;n5</title>
<path fill="none" stroke="black" d="M135.85,-35.95C134.45,-43.51 132.75,-52.63 131.17,-61.15"/>
<polygon fill="black" stroke="black" points="127.78,-60.25 129.39,-70.72 134.66,-61.53 127.78,-60.25"/>
</g>
<!-- n9 -->
<g id="node10" class="node">
<title>n9</title>
<ellipse fill="none" stroke="black" cx="180" cy="-90" rx="18" ry="18"/>
<text text-anchor="middle" x="180" y="-84.95" font-family="Times,serif" font-size="14.00">sin</text>
</g>
<!-- n7&#45;&gt;n9 -->
<g id="edge11" class="edge">
<title>n7&#45;&gt;n9</title>
<path fill="none" stroke="black" d="M147.9,-34.19C153,-42.9 159.54,-54.06 165.38,-64.03"/>
<polygon fill="black" stroke="black" points="162.28,-65.67 170.36,-72.53 168.32,-62.14 162.28,-65.67"/>
</g>
<!-- n8&#45;&gt;n3 -->
<g id="edge8" class="edge">
<title>n8&#45;&gt;n3</title>
<path fill="none" stroke="black" d="M82.67,-104.83C89.99,-114.32 99.88,-127.14 108.36,-138.14"/>
<polygon fill="black" stroke="black" points="105.55,-140.22 114.43,-146 111.09,-135.94 105.55,-140.22"/>
</g>
<!-- n9&#45;&gt;n3 -->
<g id="edge9" class="edge">
<title>n9&#45;&gt;n3</title>
<path fill="none" stroke="black" d="M169.33,-104.83C162.01,-114.32 152.12,-127.14 143.64,-138.14"/>
<polygon fill="black" stroke="black" points="140.91,-135.94 137.57,-146 146.45,-140.22 140.91,-135.94"/>
</g>
</g>
</svg>
